<svg xmlns="http://www.w3.org/2000/svg" viewBox="0 0 90 90" height="90mm" width="90mm"><path d="M67.238 55.568c-1.65 9.02-11.123 7.15-13.675 5.256-2.552-1.894-3.365-6.378-3.48-8.544-.116-2.166 2.513-4.872 7.694-5.26 5.181-.384 8.778 1.355 9.667 2.36.89 1.006.116 4.424-.206 6.188zm-28.085 5.256c-2.552 1.895-12.026 3.764-13.675-5.256-.323-1.764-1.096-5.182-.207-6.188.89-1.005 4.486-2.744 9.667-2.36 5.182.388 7.81 3.094 7.695 5.26-.116 2.166-.928 6.65-3.48 8.544zm31.691-13.363c-1.522-.878-6.3-3.203-13.041-2.36-5.546.691-8.809 1.877-10.351 2.575-.349.16-.722.24-1.094.24-.373 0-.746-.08-1.095-.24-1.542-.698-4.804-1.884-10.35-2.575-6.741-.843-11.52 1.482-13.042 2.36a.831.831 0 00-.395.896l.53 2.49c.096.445.53.735.978.646l.277-.053s.79 4.396 1.659 6.855c1.458 4.127 5.61 5.88 10.147 5.366 4.537-.515 6.083-2.216 7.579-5.363 1.495-3.143 1.804-5.256 3.712-5.309 1.907.053 2.217 2.166 3.712 5.31 1.495 3.146 3.041 4.847 7.578 5.362 4.537.515 8.69-1.239 10.147-5.366.87-2.459 1.66-6.855 1.66-6.855l.277.053a.835.835 0 00.976-.645l.531-2.49a.831.831 0 00-.395-.897"/><path d="M41.807 62.578c-.245-.198-.738.243-.778 1.17-.038.929.856 1.55 1.438 1.627.583.078.544-.271.194-.31-.35-.04-.932-1.052-.932-1.517 0-.466.272-.815.078-.97M43.227 64.246c-.18-.02-.294.586.367.974.66.388 2.06.698 2.914.698.855 0 1.982-.702 1.67-.836-.31-.134-.738.353-1.864.304-1.127-.05-2.37-.321-2.565-.632-.194-.314-.19-.469-.522-.508M49.733 61.76c-.296-.124-.971.624-.272.973.699.35.855.557.66 1.016-.194.458 0 1.044.077.966.079-.08 1.089-.469.856-1.128-.233-.66-.583-1.514-1.321-1.828M44.76 55.737c-.456.505-1.4 4.509-1.75 5.401-.348.896-.272 1.09 0 1.13.274.038.43-.82 1.012-2.837.583-2.022 1.127-4.12.738-3.694"/><path d="M53.395 79.596c-1.593 1.435-4.274 1.164-4.312.582-.04-.582 1.088-4.354.272-4.78-.816-.427-2.997-.699-2.997-.699s-2.181.272-2.997.699c-.816.426.31 4.198.272 4.78-.04.582-2.72.853-4.313-.582-1.593-1.44-.194-6.1 0-6.763.194-.66 3.07-1.63 3.768-1.708.698-.077 2.37.117 3.27.194.898-.077 2.571-.271 3.27-.194.698.078 3.573 1.048 3.767 1.708.195.663 1.593 5.323 0 6.763zM22.225 66.19s-.778-.504-1.516-1.108c-.738-.603-.932-1.34-1.049-2.039-.117-.698-.66-7.306-.816-9.246-.155-1.944.272-1.905.971-1.905.7 0 2.41 1.32 2.41 1.32.007.747.116 4.353.194 7.5.078 3.146-.194 5.478-.194 5.478zm50.392-15.579c-.35-.391-1.242-.973-1.36-.585-.03.106-.052.279-.075.469.262.035.512.074.658.116.428.117.35 1.397.35 4.195 0 2.797-.505 6.992-.66 8.428-.156 1.436-1.904 1.676-2.086 1.676-.181 0-.207-3.888-.246-5.634-.038-1.75.246-6.192.246-6.192-.275 1.408-.747 3.733-1.062 4.752-.466 1.517-.932 2.41-.932 2.41s-1.554 12.665-6.217 13.173c-4.662.504-3.73-4.975-4.351-5.169-.622-.194-5.907-.585-7.112-.546-1.204.038-3.412.624-3.412.624s-3.347-.857-3.89-.857c-.545 0-6.001.596-6.585.829-.582.233-1.497 5.933-3.595 5.895-2.098-.04-4.896-2.371-5.868-6.802-.97-4.427-1.204-7.535-1.204-7.535s-1.437-2.798-2.175-6.724l-1.244-1.01c-.622-.465-1.593-1.24-2.758-.93-1.166.31-1.4 1.481-.972 4.49.428 3.006 1.05 6.622 1.204 7.786.156 1.164.544 1.672 1.4 2.254a9.274 9.274 0 001.826.932s1.048 7.965 1.71 8.936c.66.973 4.661 5.4 9.052 8.315 4.39 2.914 9.17 4.896 14.143 4.78 4.973-.117 7.731-1.595 8.858-2.255 1.127-.66 7.926-6.254 9.208-7.302 1.283-1.051 2.37-2.759 2.837-5.634.466-2.875.932-7.306.932-7.306s2.759-1.277 2.992-2.233c.233-.952.583-7.44.583-9.384s.155-3.574-.195-3.962"/><path d="M48.84 71.785c.68-.25-2.768.272-3.949.272-1.18 0-1.53-.31-1.57 0-.038.31 3.187.582 5.518-.272M25.443 45.263l-2.716.903s-2.01-8.784-2.603-11.5c-.592-2.717-.006-5.697.74-6.763.745-1.065 8.467-10.121 12.727-14.326 4.26-4.209 7.082-6.393 7.509-6.445.425-.053 1.171 1.65 1.171 1.65s.586-1.862.373-3.033c-.213-1.172-.266-2.131-.266-2.131s3.301.32 5.218 3.623c0 0 .213-1.813-.425-3.196 0 0 2.502.427 4.153 3.887 0 0 .533-1.439 0-2.183 0 0 1.704-.053 4.048 2.98 0 0 .798-.638 1.49.163.693.797 7.51 8.89 11.61 16.665 0 0 2.396 3.997 2.769 4.689.373.691-1.118 12.728-1.545 15.92 0 0-1.757-.744-2.715-1.009 0 0 1.438-6.286-.746-12.357 0 0-.266-2.022-4.26-.692-3.994 1.334-10.038 2.717-15.563 2.452-5.526-.268-14.525-2.505-16.23-2.452-1.703.053-5.378 1.598-5.591 2.29-.213.691-.213 7.563.852 10.865M35.903 52.601l-1.945 1.856.79-2.561a2.666 2.666 0 00-.79-.135 2.695 2.695 0 102.694 2.696c0-.723-.288-1.373-.749-1.856M59.837 52.601l-1.945 1.856.79-2.561a2.666 2.666 0 00-.79-.135 2.694 2.694 0 102.694 2.696c0-.723-.288-1.373-.75-1.856"/></svg>