<svg xmlns="http://www.w3.org/2000/svg" fill="#f5f5f5" width="45" height="45"><path d="M28.939 5.733H21.06a.65.65 0 00-.65.65v.836h-7.779c-.997 0-1.808.874-1.808 1.949v33.151c0 1.075.811 1.949 1.808 1.949h24.736c.997 0 1.808-.874 1.808-1.949V9.167c0-1.075-.811-1.949-1.808-1.949H29.59v-.835a.651.651 0 00-.651-.65zm-7.229 1.3h6.579v1.672H21.71V7.033zm16.166 2.134v33.151c0 .352-.232.649-.508.649H12.632c-.275 0-.508-.297-.508-.649V9.167c0-.352.232-.649.508-.649h.889v31.48c0 .359.291.65.65.65H35.83a.65.65 0 00.65-.65V8.519h.889c.275 0 .507.297.507.648zm-2.696-.648V39.35H14.82V8.519h5.59v.836c0 .359.291.65.65.65h7.879a.65.65 0 00.65-.65v-.836h5.591zm-17.836 4.962h15.312a.65.65 0 110 1.3H17.344a.65.65 0 110-1.3zm15.962 4.66a.65.65 0 01-.65.65H17.344a.65.65 0 110-1.3h15.312a.65.65 0 01.65.65zm0 4.008a.65.65 0 01-.65.65H17.344a.65.65 0 110-1.3h15.312c.359.001.65.292.65.65zm0 4.01a.65.65 0 01-.65.65H17.344a.65.65 0 110-1.3h15.312a.65.65 0 01.65.65zm0 4.008a.65.65 0 01-.65.65H17.344a.65.65 0 110-1.3h15.312c.359.001.65.292.65.65zm0 4.01a.65.65 0 01-.65.65H17.344a.65.65 0 110-1.3h15.312a.65.65 0 01.65.65z"/></svg>