<svg xmlns="http://www.w3.org/2000/svg" width="681.371" height="681.371"><path d="M60.659 369.475h92.172c14.319 0 25.974-9.678 25.974-23.986 0-14.294-11.646-23.997-25.974-23.997H60.645c-14.314 0-25.959 9.697-25.959 23.997 0 14.308 11.655 23.986 25.973 23.986zm0-28.79h92.158c3.743 0 6.794 1.075 6.794 4.803s-3.042 4.793-6.78 4.793H60.659c-3.738 0-6.78-1.064-6.78-4.793s3.052-4.803 6.78-4.803zM178.805 484.641c0-14.293-11.646-23.996-25.974-23.996H60.64c-14.309 0-25.955 9.707-25.955 23.996 0 14.314 11.655 23.988 25.974 23.988h92.172c14.319 0 25.974-9.674 25.974-23.988zm-124.926 0c0-3.729 3.052-4.803 6.78-4.803h92.153c3.748 0 6.799 1.074 6.799 4.803s-3.042 4.795-6.78 4.795H60.659c-3.738 0-6.78-1.061-6.78-4.795zM60.659 220.726h92.201c14.304 0 25.945-9.722 25.945-23.992 0-14.28-11.641-23.992-25.974-23.992H60.635c-14.309 0-25.95 9.712-25.95 23.992.001 14.27 11.642 23.992 25.974 23.992zm0-28.791h92.148c3.752 0 6.804 1.07 6.804 4.798 0 3.719-3.052 4.798-6.799 4.798H60.688c-3.752 0-6.809-1.075-6.809-4.798s3.057-4.798 6.78-4.798z"/><path d="M544.029 0H173.205C122.52 0 70.88 50.109 70.88 100.799v53.704c0 5.302 6.185 8.642 11.487 8.642h70.469c17.773 0 32.236 15.811 32.236 33.584-.005 17.759-14.472 33.593-32.241 33.593H82.367c-5.297 0-11.487 2.543-11.487 7.845v65.685c0 5.302 6.185 8.042 11.487 8.042h70.469c17.773 0 32.236 15.816 32.236 33.59 0 17.754-14.467 33.588-32.236 33.588H82.367c-5.297 0-11.487 3.129-11.487 8.43v55.734c0 5.303 6.185 7.811 11.487 7.811h70.469c17.773 0 32.236 15.816 32.236 33.59 0 17.754-14.467 33.588-32.236 33.588H82.367c-5.297 0-11.487 3.359-11.487 8.662v53.693c0 50.686 51.64 100.791 102.325 100.791h370.824c50.699 0 102.656-50.105 102.656-100.791V100.799C646.686 50.109 594.733 0 544.029 0zm83.463 580.58c0 40.24-43.21 81.596-83.463 81.596H173.205c-40.244 0-83.132-41.355-83.132-81.596v-43.162h62.768c28.349 0 51.419-24.451 51.419-52.781 0-28.354-23.07-52.783-51.429-52.783H90.073v-33.588h62.768c28.354 0 51.419-24.457 51.419-52.781 0-28.354-23.07-52.783-51.429-52.783H90.073v-43.186h62.768c28.354 0 51.419-24.457 51.419-52.787 0-28.354-23.07-52.777-51.429-52.777H90.073V100.8c0-40.244 42.888-81.606 83.132-81.606h370.824c40.253 0 83.463 41.362 83.463 81.606v479.78z"/><path d="M484.663 410.209c-5.676-9.828-16.285-15.936-27.687-15.936a31.851 31.851 0 00-15.892 4.256c-8.763 5.053-15.298 7.787-24.707 7.787-2.261 0-4.679-.168-7.174-.498-13.397-1.789-31.713-19.674-46.674-45.551-14.74-25.533-21.593-51.684-16.65-63.622 5.619-13.656 13.152-18.824 22.418-24.16 15.235-8.771 20.494-28.311 11.713-43.569l-22.293-38.574c-5.581-9.712-15.614-15.513-26.843-15.513-5.681 0-11.338 1.531-16.353 4.429l-13.973 8.052c-18.876 10.902-24.692 30.345-28.162 49.707-7.399 40.618 6.617 93.137 40.532 151.892 33.435 57.859 72.94 97.293 111.255 111.055 12.423 4.453 23.09 6.611 32.596 6.611 9.208 0 17.466-2.078 24.553-6.17l13.93-8.053c15.226-8.781 20.471-28.314 11.689-43.559l-22.278-38.584zm.998 65.521l-13.938 8.057c-9.362 5.412-22.433 4.783-41.065-1.895-33.545-12.045-70.401-49.438-101.111-102.586-31.611-54.754-44.845-102.771-38.267-138.879 3.685-20.547 8.973-30.782 18.862-36.487l13.973-8.057c2.111-1.219 4.453-1.862 6.766-1.862 4.333 0 8.052 2.14 10.211 5.902l22.298 38.579c3.498 6.075 1.401 13.858-4.673 17.351-11.143 6.42-22.687 14.294-30.576 33.469-7.514 18.147-.878 48.257 17.773 80.546 18.368 31.793 41.084 52.346 60.767 54.975 3.34.441 6.604.668 9.698.668 15.071 0 25.206-5.115 34.294-10.355a12.657 12.657 0 016.3-1.689c4.563 0 8.806 2.434 11.065 6.338l22.279 38.57c3.501 6.07 1.414 13.854-4.656 17.355z"/></svg>