<svg xmlns="http://www.w3.org/2000/svg" width="612.001" height="612.001"><path d="M599.751 276.341L489.037 165.537c-7.924-7.924-18.451-12.288-29.65-12.288-11.179 0-21.699 4.352-29.627 12.261-16.334 16.33-16.342 42.932-.008 59.296l81.083 81.165-81.079 81.109c-7.928 7.932-12.287 18.475-12.279 29.688.007 11.191 4.37 21.707 12.283 29.594 7.92 7.92 18.444 12.279 29.639 12.279 11.202 0 21.729-4.359 29.639-12.279L599.752 335.61c16.333-16.341 16.333-42.931-.001-59.269zm-10.659 48.621L478.378 435.714c-5.068 5.072-11.809 7.865-18.979 7.865s-13.911-2.793-18.986-7.873c-5.068-5.053-7.856-11.777-7.864-18.945-.008-7.178 2.788-13.934 7.867-19.016l86.399-86.438a7.533 7.533 0 00.004-10.652l-86.399-86.49c-10.463-10.486-10.467-27.532-.011-37.984 5.079-5.064 11.82-7.853 18.979-7.853 7.17 0 13.915 2.796 18.99 7.871l110.714 110.805c10.46 10.461 10.46 27.488 0 37.958zM194.525 416.773c.007-11.209-4.348-21.748-12.28-29.688l-81.075-81.109 81.09-81.173c16.323-16.364 16.312-42.962-.034-59.304-7.92-7.897-18.437-12.246-29.612-12.246-11.198 0-21.73 4.363-29.654 12.288L12.25 276.334c-16.334 16.345-16.334 42.939.004 59.281l110.703 110.74c7.917 7.928 18.448 12.291 29.646 12.291s21.722-4.355 29.62-12.264c7.924-7.898 12.295-18.414 12.302-29.609zm-22.954 18.945c-5.06 5.068-11.797 7.857-18.968 7.857s-13.915-2.793-18.987-7.871L22.914 324.962c-10.464-10.467-10.464-27.501 0-37.969L133.62 176.196c5.079-5.075 11.824-7.871 18.994-7.871 7.159 0 13.896 2.785 18.964 7.837 10.467 10.463 10.471 27.51.015 37.992l-86.407 86.494a7.533 7.533 0 00.004 10.652l86.399 86.434c5.079 5.086 7.875 11.842 7.867 19.021-.01 7.17-2.802 13.899-7.885 18.963zM410.932 23.764a41.877 41.877 0 00-14.665-2.653c-17.435 0-33.203 10.987-39.244 27.333l-180.595 485.89c-3.918 10.502-3.508 21.9 1.165 32.104 4.668 10.191 13.014 17.939 23.482 21.801a41.83 41.83 0 0014.646 2.652c17.416 0 33.207-10.982 39.304-27.336L435.642 77.608c8.01-21.689-3.082-45.845-24.71-53.844zm10.572 48.606L240.897 558.294c-3.907 10.479-14.024 17.521-25.177 17.521a26.83 26.83 0 01-9.401-1.711c-6.699-2.477-12.035-7.432-15.022-13.949-2.992-6.529-3.256-13.828-.739-20.562L371.156 53.681c3.866-10.467 13.957-17.499 25.11-17.499 3.206 0 6.363.573 9.416 1.711 13.855 5.121 20.954 20.596 15.822 34.477z"/></svg>